<?xml version="1.0" encoding="UTF-8" ?>
<!DOCTYPE svg PUBLIC "-//W3C//DTD SVG 1.1//EN" "http://www.w3.org/Graphics/SVG/1.1/DTD/svg11.dtd">
<svg width="500pt" height="500pt" viewBox="0 0 500 500" version="1.1" xmlns="http://www.w3.org/2000/svg">
<g id="#000000ff">
<path fill="#000000" opacity="1.00" d=" M 68.46 2.61 C 71.55 1.47 74.85 2.06 78.05 2.00 C 191.36 2.00 304.66 2.00 417.97 2.00 C 423.72 2.05 429.69 1.45 435.16 3.65 C 468.49 13.57 495.16 44.11 498.89 78.90 C 499.13 190.93 498.95 302.97 498.98 415.00 C 499.21 424.31 496.19 433.27 493.06 441.91 C 486.35 457.60 475.61 471.72 461.67 481.67 C 451.68 489.00 440.10 494.02 428.05 496.79 C 424.75 497.55 421.40 498.03 418.02 498.01 C 305.66 497.96 193.30 498.06 80.95 497.96 C 46.03 494.37 14.68 468.23 4.60 434.63 C 2.38 427.63 0.96 420.32 1.05 412.96 C 0.99 302.63 0.92 192.30 1.09 81.98 C 1.21 73.56 4.37 65.65 6.88 57.74 C 10.34 48.86 14.77 40.25 21.09 33.05 C 27.63 25.93 34.44 18.90 42.66 13.68 C 50.72 8.85 59.46 5.28 68.46 2.61 M 134.76 138.16 C 133.55 144.05 132.33 150.00 132.54 156.04 C 132.76 202.36 132.14 248.65 132.29 294.97 C 132.41 300.68 131.70 306.65 133.85 312.11 C 136.20 319.04 142.21 324.41 149.13 326.59 C 154.92 328.02 160.95 327.22 166.85 327.42 C 166.80 270.60 166.87 213.78 166.82 156.96 C 165.87 141.17 179.94 125.71 195.99 126.33 C 246.31 126.37 296.63 126.35 346.95 126.34 C 351.99 126.39 356.92 127.62 361.97 127.74 C 357.06 119.40 351.22 111.45 343.56 105.44 C 333.82 97.52 321.49 93.19 309.07 92.13 C 270.37 92.07 231.66 92.14 192.96 92.09 C 166.27 92.63 141.68 112.53 134.76 138.16 M 174.08 146.93 C 172.01 153.23 172.92 159.93 172.71 166.43 C 229.83 166.41 286.94 166.44 344.06 166.42 C 354.90 166.28 365.64 172.65 370.43 182.42 C 374.60 190.66 373.05 200.15 373.35 209.02 C 373.09 253.68 373.18 298.34 373.18 343.00 C 373.37 349.32 372.66 355.65 371.51 361.86 C 378.86 357.72 386.11 353.11 391.61 346.60 C 399.61 337.80 404.67 326.73 407.21 315.18 C 408.25 307.17 407.77 299.09 407.88 291.04 C 407.79 258.02 408.04 224.99 407.75 191.98 C 407.19 160.71 379.31 132.88 348.09 132.19 C 297.04 132.12 245.98 132.20 194.93 132.15 C 185.72 132.01 177.49 138.64 174.08 146.93 M 114.27 147.29 C 100.16 159.60 91.67 178.24 92.14 197.00 C 92.16 232.68 92.16 268.35 92.14 304.02 C 92.11 307.11 92.73 310.15 92.91 313.24 C 96.39 341.85 122.22 365.96 151.02 367.34 C 202.35 367.43 253.68 367.32 305.01 367.39 C 314.20 367.66 322.53 361.06 326.01 352.82 C 328.32 346.54 327.15 339.75 327.44 333.23 C 269.58 333.24 211.71 333.31 153.84 333.19 C 147.28 332.19 140.67 329.98 135.90 325.15 C 129.86 319.92 126.89 311.86 126.84 303.99 C 126.82 288.99 126.85 274.00 126.84 259.01 C 127.40 222.65 126.96 186.27 127.13 149.91 C 127.28 145.75 127.99 141.64 128.73 137.56 C 123.79 140.61 118.62 143.39 114.27 147.29 M 333.35 172.15 C 333.39 229.78 333.34 287.41 333.37 345.04 C 332.95 359.77 319.88 373.14 305.02 373.33 C 256.35 373.30 207.67 373.33 159.00 373.32 C 155.72 373.28 152.41 373.57 149.18 372.91 C 145.52 372.42 141.88 371.77 138.19 371.56 C 143.82 381.50 151.16 390.71 160.75 397.08 C 170.53 403.44 182.17 407.51 193.94 406.96 C 232.98 406.93 272.02 406.96 311.06 406.94 C 326.34 406.08 340.76 398.20 351.01 387.03 C 361.70 375.83 367.56 360.47 367.61 345.04 C 367.61 314.35 367.61 283.67 367.61 252.98 C 368.78 240.04 367.98 227.01 368.22 214.02 C 367.94 205.42 369.14 196.59 366.65 188.22 C 364.23 180.10 356.90 173.95 348.69 172.32 C 343.59 171.91 338.46 172.24 333.35 172.15 Z" />
</g>
<g id="#eff1f3ff">
<path fill="#eff1f3" opacity="1.00" d=" M 134.76 138.16 C 141.68 112.53 166.27 92.63 192.96 92.09 C 231.66 92.14 270.37 92.07 309.07 92.13 C 321.49 93.19 333.82 97.52 343.56 105.44 C 351.22 111.45 357.06 119.40 361.97 127.74 C 356.92 127.62 351.99 126.39 346.95 126.34 C 296.63 126.35 246.31 126.37 195.99 126.33 C 179.94 125.71 165.87 141.17 166.82 156.96 C 166.87 213.78 166.80 270.60 166.85 327.42 C 160.95 327.22 154.92 328.02 149.13 326.59 C 142.21 324.41 136.20 319.04 133.85 312.11 C 131.70 306.65 132.41 300.68 132.29 294.97 C 132.14 248.65 132.76 202.36 132.54 156.04 C 132.33 150.00 133.55 144.05 134.76 138.16 Z" />
<path fill="#eff1f3" opacity="1.00" d=" M 174.08 146.93 C 177.49 138.64 185.72 132.01 194.93 132.15 C 245.98 132.20 297.04 132.12 348.09 132.19 C 379.31 132.88 407.19 160.71 407.75 191.98 C 408.04 224.99 407.79 258.02 407.88 291.04 C 407.77 299.09 408.25 307.17 407.21 315.18 C 404.67 326.73 399.61 337.80 391.61 346.60 C 386.11 353.11 378.86 357.72 371.51 361.86 C 372.66 355.65 373.37 349.32 373.18 343.00 C 373.18 298.34 373.09 253.68 373.35 209.02 C 373.05 200.15 374.60 190.66 370.43 182.42 C 365.64 172.65 354.90 166.28 344.06 166.42 C 286.94 166.44 229.83 166.41 172.71 166.43 C 172.92 159.93 172.01 153.23 174.08 146.93 Z" />
<path fill="#eff1f3" opacity="1.00" d=" M 114.27 147.29 C 118.62 143.39 123.79 140.61 128.73 137.56 C 127.99 141.64 127.28 145.75 127.13 149.91 C 126.96 186.27 127.40 222.65 126.84 259.01 C 126.85 274.00 126.82 288.99 126.84 303.99 C 126.89 311.86 129.86 319.92 135.90 325.15 C 140.67 329.98 147.28 332.19 153.84 333.19 C 211.71 333.31 269.58 333.24 327.44 333.23 C 327.15 339.75 328.32 346.54 326.01 352.82 C 322.53 361.06 314.20 367.66 305.01 367.39 C 253.68 367.32 202.35 367.43 151.02 367.34 C 122.22 365.96 96.39 341.85 92.91 313.24 C 92.73 310.15 92.11 307.11 92.14 304.02 C 92.16 268.35 92.16 232.68 92.14 197.00 C 91.67 178.24 100.16 159.60 114.27 147.29 Z" />
<path fill="#eff1f3" opacity="1.00" d=" M 333.35 172.15 C 338.46 172.24 343.59 171.91 348.69 172.32 C 356.90 173.95 364.23 180.10 366.65 188.22 C 369.14 196.59 367.94 205.42 368.22 214.02 C 367.98 227.01 368.78 240.04 367.61 252.98 C 367.61 283.67 367.61 314.35 367.61 345.04 C 367.56 360.47 361.70 375.83 351.01 387.03 C 340.76 398.20 326.34 406.08 311.06 406.94 C 272.02 406.96 232.98 406.93 193.94 406.96 C 182.17 407.51 170.53 403.44 160.75 397.08 C 151.16 390.71 143.82 381.50 138.19 371.56 C 141.88 371.77 145.52 372.42 149.18 372.91 C 152.41 373.57 155.72 373.28 159.00 373.32 C 207.67 373.33 256.35 373.30 305.02 373.33 C 319.88 373.14 332.95 359.77 333.37 345.04 C 333.34 287.41 333.39 229.78 333.35 172.15 Z" />
</g>
</svg>
